<svg width="70" height="19" viewBox="0 0 70 19" fill="none" xmlns="http://www.w3.org/2000/svg">
<g clip-path="url(#clip0_375_47486)">
<path d="M8.2687 2.27832C8.42966 2.4393 8.58216 2.60028 8.74736 2.75301C9.0227 3.01306 9.30228 3.26485 9.59033 3.52903C9.17096 3.83861 8.76431 4.13993 8.35765 4.44126C8.4805 4.65177 8.61181 4.84165 8.71348 5.04804C9.0693 5.76214 9.16249 6.5299 9.13708 7.31417C9.07354 9.37804 7.63329 10.9879 5.54071 11.3098C4.87142 11.413 4.19366 11.4625 3.52013 11.5286C3.10924 11.5699 2.72376 11.6937 2.35523 11.8794C2.27475 11.9207 2.20273 11.9826 2.14767 12.0487C1.97399 12.2592 2.02059 12.5069 2.27475 12.6059C2.46113 12.6802 2.66446 12.7215 2.86779 12.738C3.49048 12.7793 4.10046 12.672 4.71045 12.5647C5.64661 12.4037 6.57853 12.3335 7.51045 12.5812C8.31529 12.7958 8.98882 13.1962 9.39547 13.9309C10.0309 15.0702 9.98851 16.8658 8.44237 17.9348C7.66718 18.4715 6.80304 18.7728 5.86688 18.909C4.06234 19.1773 2.37217 18.8223 0.770964 18.0009C0.576108 17.9018 0.398196 17.778 0.194868 17.6542C0.576108 17.1052 0.944641 16.5727 1.32165 16.0278C1.85115 16.3622 2.38912 16.6676 3.01181 16.8864C2.9991 16.7626 2.99063 16.6594 2.97792 16.5603C2.8932 15.9164 2.80425 15.2725 2.73224 14.6285C2.71529 14.4841 2.64751 14.4675 2.52467 14.4634C2.13496 14.4428 1.75795 14.3726 1.40213 14.2075C0.842976 13.9516 0.554928 13.514 0.474444 12.9196C0.398196 12.3418 0.643884 11.9249 1.0929 11.5905C1.45296 11.3222 1.85538 11.1447 2.28745 11.0209C2.34252 11.0044 2.39759 10.9879 2.49078 10.959C2.41453 10.9177 2.36794 10.8888 2.31711 10.864C1.38519 10.3935 0.660828 9.72064 0.317712 8.73411C-0.127069 7.46277 -0.152485 6.18317 0.533748 4.98612C1.25387 3.72716 2.38912 3.01306 3.86748 2.85208C4.81635 2.74888 5.74827 2.81905 6.63783 3.19881C6.82845 3.28136 7.00637 3.38868 7.21393 3.496C7.55281 3.09561 7.89593 2.68697 8.23481 2.27832C8.24751 2.27832 8.25599 2.27832 8.2687 2.27832ZM2.13072 7.04999C2.15614 7.27289 2.17732 7.49991 2.21544 7.71869C2.41877 8.91573 3.23632 9.69175 4.469 9.79907C5.23571 9.86511 5.90077 9.62157 6.38791 9.00654C6.73526 8.57313 6.9047 8.06542 6.96401 7.52881C7.03602 6.89314 6.98519 6.27398 6.67172 5.69196C5.82876 4.13168 3.96491 4.15644 3.01181 5.01914C2.4103 5.564 2.13919 6.25334 2.13072 7.04999ZM6.31166 16.9978C6.6929 16.8823 7.00637 16.7213 7.27747 16.4943C7.72649 16.1145 7.86627 15.6398 7.68836 15.0908C7.51469 14.5501 7.06567 14.3396 6.51499 14.2199C6.44298 15.1445 6.37944 16.0526 6.31166 16.9978ZM5.18912 17.1877C5.13405 16.1971 5.07898 15.2105 5.01968 14.2075C4.7867 14.2488 4.58761 14.2735 4.38851 14.3189C4.35039 14.3272 4.30803 14.3974 4.30379 14.4428C4.28685 14.5955 4.28261 14.7441 4.26991 14.8968C4.22331 15.6192 4.17248 16.3415 4.13012 17.0598C4.12588 17.101 4.16824 17.1753 4.19366 17.1795C4.51559 17.1877 4.84177 17.1877 5.18912 17.1877Z" fill="white"/>
<path d="M4.97731 6.78153C4.93919 7.13239 4.82905 7.42959 4.56218 7.65662C4.21059 7.96207 3.71498 7.91666 3.4227 7.56168C3.05416 7.11175 3.1177 6.37289 3.55401 5.98901C3.96914 5.62577 4.57065 5.74134 4.82058 6.24906C4.90106 6.41417 4.92648 6.60404 4.97731 6.78153Z" fill="white"/>
<path d="M37.1286 2.98417C37.1922 3.4795 37.1667 3.87576 36.8533 4.28441C35.1801 6.46799 33.5407 8.67633 31.8887 10.8764C31.8124 10.9755 31.7489 11.0787 31.6345 11.2479C31.8548 11.2603 32.0158 11.2768 32.1725 11.2768C33.7144 11.2768 35.2521 11.2851 36.794 11.2727C37.1159 11.2686 37.2599 11.3387 37.2345 11.6855C37.2006 12.1312 37.2176 12.5853 37.2303 13.0352C37.2388 13.2664 37.1456 13.3572 36.9168 13.3407C36.8533 13.3366 36.7897 13.3407 36.7262 13.3407C30.6899 13.3407 24.6578 13.3366 18.6257 13.3407C18.4182 13.3407 18.2106 13.4315 18.003 13.481C17.1135 13.6833 16.4823 13.4232 16.0079 12.6637C15.9571 12.5812 15.9062 12.4986 15.83 12.3707C15.2242 13.0559 14.4448 13.3737 13.5807 13.4893C12.6657 13.6131 11.7634 13.5512 10.912 13.1632C9.55222 12.544 9.0566 11.2727 9.26417 9.84035C9.50138 8.19338 10.5985 7.13668 12.42 6.74454C12.9283 6.63722 13.4578 6.57944 13.9788 6.54229C14.4956 6.50926 15.0167 6.53403 15.5589 6.53403C15.669 6.07172 15.3471 5.4278 14.7794 5.11821C14.1949 4.79625 13.5552 4.77148 12.9114 4.79625C12.5683 4.80863 12.2209 4.84578 11.882 4.91183C11.5601 4.97374 11.2466 5.08932 10.8527 5.20077C10.6959 4.6394 10.5265 4.0739 10.3909 3.50014C10.3782 3.44648 10.535 3.30614 10.6324 3.27724C11.1958 3.12451 11.7634 2.93051 12.3395 2.86859C13.4112 2.75302 14.4872 2.77366 15.5377 3.09149C16.9949 3.52903 17.7277 4.56922 17.8675 5.9644C18.0115 7.37609 17.9776 8.80842 18.0496 10.2284C18.0793 10.798 18.1852 11.3635 18.2869 11.929C18.3207 12.1106 18.4478 12.2798 18.5707 12.5316C20.5192 10.022 22.4085 7.59073 24.3571 5.07694C24.1114 5.06455 23.9758 5.0563 23.8403 5.0563C22.2602 5.0563 20.6802 5.04391 19.1044 5.06455C18.7359 5.06868 18.6384 4.94485 18.6554 4.61463C18.6766 4.16471 18.6681 3.71478 18.6596 3.26486C18.6554 3.0626 18.7316 2.9594 18.9519 2.98417C19.0409 2.99243 19.1298 2.98417 19.2188 2.98417C25.0221 2.98417 30.8254 2.98417 36.6288 2.98417C36.7855 2.98417 36.938 2.98417 37.1286 2.98417ZM27.8856 4.06151C27.8518 4.04913 27.8179 4.04087 27.7882 4.02849C26.0006 6.4102 24.213 8.7919 22.3704 11.2438C22.6245 11.2562 22.7855 11.2727 22.9465 11.2727C24.4968 11.2727 26.0515 11.2809 27.6018 11.2686C27.8984 11.2686 28.0297 11.3511 27.9915 11.6524C27.9704 11.8134 27.9873 11.9826 27.9873 12.1478C28.0254 12.156 28.0636 12.1643 28.0974 12.1725C29.9147 9.8321 31.7277 7.49167 33.545 5.15124C33.5238 5.11821 33.5026 5.08519 33.4856 5.05217C33.3501 5.05217 33.2145 5.05217 33.079 5.05217C31.5667 5.05217 30.0545 5.0563 28.538 5.05217C27.8772 5.05217 27.9111 5.14711 27.9068 4.45778C27.9026 4.32982 27.8899 4.1936 27.8856 4.06151ZM15.6055 9.2377C15.6097 9.2377 15.6139 9.2377 15.6139 9.2377C15.6139 9.11387 15.597 8.98591 15.6182 8.86208C15.669 8.54424 15.5292 8.39564 15.2115 8.39151C14.7625 8.38326 14.3135 8.3296 13.8687 8.37088C13.2164 8.43279 12.5767 8.57726 12.0938 9.08085C11.4415 9.76192 11.5431 11.0044 12.2844 11.4254C13.6484 12.2055 15.436 11.3511 15.6012 9.83622C15.6224 9.63809 15.6055 9.43583 15.6055 9.2377Z" fill="white"/>
<path d="M50.7813 4.89528C50.7685 5.06865 50.7474 5.20073 50.7474 5.33695C50.7558 6.86421 50.7685 8.38735 50.7855 9.91462C50.7897 10.088 50.8194 10.2613 50.8617 10.4306C51.0269 11.1694 51.4632 11.5575 52.2384 11.5203C52.8272 11.4914 53.4076 11.3428 54.0303 11.2396C54.0303 11.8134 54.0387 12.4697 54.0218 13.1219C54.0176 13.192 53.8905 13.2994 53.8015 13.32C52.6917 13.5635 51.5649 13.6667 50.4508 13.3943C49.2182 13.0889 48.3964 12.0734 48.3625 10.7773C48.3159 9.01477 48.3328 7.25222 48.3159 5.48555C48.3159 5.2998 48.299 5.11818 48.2862 4.89528C47.9728 4.89528 47.6932 4.88703 47.4136 4.89941C47.1934 4.91179 47.079 4.84575 47.0832 4.61047C47.0917 4.16054 47.0917 3.71062 47.0832 3.2607C47.079 3.05431 47.1637 2.97175 47.384 2.98001C47.6763 2.99239 47.9685 2.98414 48.3201 2.98414C48.3201 2.38561 48.3371 1.82424 48.3117 1.267C48.299 0.96567 48.4091 0.821199 48.7014 0.726261C49.3537 0.515746 49.9976 0.27221 50.7347 0.0121617C50.7347 1.02759 50.7347 1.99348 50.7347 2.98414C51.8487 2.98414 52.8865 2.98414 53.9244 2.98414C54.8944 2.98414 54.8902 2.98414 54.8944 2.05127C54.8987 1.66326 54.7758 1.18444 54.9664 0.920265C55.1528 0.65609 55.6569 0.598301 56.0297 0.462086C56.4448 0.309359 56.8684 0.169016 57.3301 0.00390625C57.3301 1.0152 57.3301 1.97284 57.3301 2.96763C58.3044 2.96763 59.249 2.96763 60.2275 2.96763C60.2275 3.61981 60.2275 4.23484 60.2275 4.89115C59.2872 4.89115 58.3425 4.89115 57.3598 4.89115C57.3513 5.06039 57.3386 5.19248 57.3386 5.32457C57.3344 6.76515 57.3386 8.2016 57.3386 9.64219C57.3386 9.80317 57.3344 9.96828 57.3555 10.1293C57.508 11.2479 58.207 11.7226 59.4015 11.5203C59.4778 11.5079 59.5498 11.4873 59.626 11.4708C60.3843 11.3139 60.4012 11.2933 60.3758 10.5709C60.308 8.56484 61.4433 7.19443 63.5782 6.74451C64.5949 6.52987 65.6242 6.41016 66.6536 6.6537C66.8611 6.10884 66.3867 5.36584 65.925 5.12643C65.3319 4.82098 64.6965 4.75081 64.0569 4.81273C63.3749 4.87464 62.7014 5.01911 61.9685 5.13469C61.8203 4.61872 61.6508 4.03258 61.456 3.36389C61.9516 3.22355 62.4176 3.05844 62.8962 2.96763C64.0527 2.74473 65.2176 2.74473 66.3698 3.01716C67.9752 3.39691 68.8732 4.38757 69.0384 6.10471C69.1698 7.48338 69.1528 8.87443 69.2079 10.2613C69.2206 10.5833 69.2248 10.9135 69.2714 11.2314C69.3985 12.0569 69.4917 12.2427 70.0042 12.8329C69.3858 13.9763 67.9159 13.7782 66.967 12.3995C66.0902 13.32 64.9719 13.5883 63.735 13.5429C62.4769 13.4975 61.4136 13.0806 60.7104 11.9826C60.6808 11.995 60.6511 12.0074 60.6173 12.0239C60.6173 12.3417 60.6088 12.6637 60.6215 12.9815C60.6257 13.1838 60.5664 13.3117 60.3462 13.353C59.2575 13.5677 58.1561 13.6791 57.0675 13.4232C55.784 13.126 54.9495 12.0817 54.9241 10.7278C54.8902 8.95285 54.9114 7.1738 54.9071 5.39887C54.9071 4.90766 54.9029 4.90766 54.3988 4.90766C53.344 4.90766 52.2935 4.90766 51.2387 4.90766C51.0905 4.89528 50.9507 4.89528 50.7813 4.89528ZM65.6073 8.34195C64.8956 8.34607 64.2009 8.42037 63.5782 8.796C62.9259 9.19226 62.731 9.80317 62.8157 10.509C62.8793 11.0374 63.1758 11.4171 63.7223 11.5533C65.0862 11.8877 66.7595 11.5368 66.7595 9.44818C66.7637 8.34195 66.7679 8.34195 65.6073 8.34195Z" fill="white"/>
<path d="M39.6617 8.88674C39.522 10.0549 40.4539 11.2148 41.7289 11.4542C43.0039 11.6936 44.19 11.5739 45.2702 10.736C45.5625 11.2932 45.8633 11.8381 46.1301 12.3994C46.1598 12.4614 46.0412 12.6636 45.948 12.7008C45.3126 12.9526 44.6814 13.258 44.0164 13.3942C42.8557 13.6336 41.6738 13.6419 40.5132 13.3158C38.5731 12.7751 37.2938 11.2272 37.1032 9.26649C36.9803 7.99927 37.0269 6.75682 37.6539 5.61757C38.6324 3.83851 40.1489 2.85198 42.2669 2.81896C44.0291 2.79006 45.5244 3.33493 46.5749 4.77138C47.4306 5.93953 47.5704 7.25215 47.2908 8.63495C47.2357 8.89912 47.0748 8.89087 46.8714 8.89087C44.6263 8.88674 42.3813 8.89087 40.1319 8.89087C39.9752 8.88674 39.8142 8.88674 39.6617 8.88674ZM44.9483 7.09117C44.9059 5.67536 43.9443 4.81266 42.4236 4.78376C40.9749 4.75487 39.8227 5.7414 39.7465 7.09117C41.4747 7.09117 43.1988 7.09117 44.9483 7.09117Z" fill="white"/>
</g>
<defs>
<clipPath id="clip0_375_47486">
<rect width="70" height="19" fill="white"/>
</clipPath>
</defs>
</svg>
